<svg xmlns="http://www.w3.org/2000/svg" viewBox="0 0 128 128" aria-hidden="true">
  <defs>
    <linearGradient id="g" x1="0" x2="1" y1="0" y2="1">
      <stop offset="0%" stop-color="#0ea5e9"/>
      <stop offset="100%" stop-color="#22c55e"/>
    </linearGradient>
  </defs>
  <rect width="128" height="128" rx="16" fill="url(#g)"/>
  <g fill="#fff" opacity="0.95">
    <!-- hooded silhouette -->
    <path d="M64 20c-14 0-26 12-26 26v6c0 2 1 4 3 5l9 6c2 1 3 3 3 5v4h22v-4c0-2 1-4 3-5l9-6c2-1 3-3 3-5v-6c0-14-12-26-26-26z"/>
    <path d="M26 104c4-16 20-28 38-28s34 12 38 28c1 2-1 4-3 4H29c-2 0-4-2-3-4z"/>
  </g>
</svg>

